<?xml version="1.0" encoding="utf-8"?>
<!-- Generator: Adobe Illustrator 24.1.0, SVG Export Plug-In . SVG Version: 6.00 Build 0)  -->
<svg version="1.1" id="Layer_1" xmlns="http://www.w3.org/2000/svg" xmlns:xlink="http://www.w3.org/1999/xlink" x="0px" y="0px"
	 viewBox="0 0 99.9 40" style="enable-background:new 0 0 99.9 40;" xml:space="preserve">
<style type="text/css">
	.st0{fill:#00ADEE;}
	.st1{fill:#FFFFFF;}
</style>
<path class="st0" d="M66.3,21.4c0,6.7-4.7,11.6-11.4,11.6c-2,0-3.7-0.5-5.3-1.4V40h-7.4V9.9l7.7,0v1.2c1.5-0.8,3.2-1.3,5-1.3
	C61.6,9.8,66.3,14.6,66.3,21.4z M59.3,21.4c0-2.8-2.1-5-4.8-5c-2.8,0-4.8,2.1-4.8,5c0,2.8,2.1,5,4.8,5
	C57.2,26.3,59.3,24.2,59.3,21.4z"/>
<path class="st0" d="M78.8,32.2L73.4,23v9.2h-7.5V2.7h7.5V19l5.2-8.5h8.4l-6.7,10.3l7.4,11.3H78.8z"/>
<path class="st0" d="M99.9,25.7v6.5h-5.1c-4.8,0-7.7-2.9-7.7-7.7v-8.2h-4v-1.7l9.7-10.3h1.5v6.3h5.4v5.7h-5.3v6.9
	c0,1.6,0.9,2.5,2.5,2.5H99.9z"/>
<rect x="1.2" y="8.9" class="st1" width="8.2" height="8.2"/>
<rect class="st1" width="5.2" height="5.2"/>
<rect x="13.5" y="0.5" class="st1" width="5.6" height="5.6"/>
<rect x="8" y="1.9" class="st1" width="2.8" height="2.8"/>
<path class="st1" d="M35.6,10v17.9c0,2.8-2.3,5.2-5.2,5.2H12.6V10H35.6z"/>
</svg>
